<svg width="130" height="130" viewBox="0 0 130 130" fill="none" xmlns="http://www.w3.org/2000/svg">
<path fill-rule="evenodd" clip-rule="evenodd" d="M6.23997 59.475V71.89H18.59H30.94V59.475V47.06H18.59H6.23997V59.475ZM68.12 59.475V71.89H80.47H92.82V59.475V47.06H80.47H68.12V59.475ZM23.373 54.9575L23.335 55.965L21.6125 56.0014L19.89 56.0375V60.5189V65H18.59H17.29V60.5189V56.0375L15.5675 56.0014L13.845 55.965L13.807 54.9575L13.7689 53.95H18.59H23.411L23.373 54.9575ZM82.0699 54.144C87.722 55.6159 87.722 63.334 82.0699 64.806C81.5129 64.9512 80.562 65 78.2977 65H75.27V59.475V53.95H78.2977C80.562 53.95 81.5129 53.9987 82.0699 54.144ZM37.18 67.275V79.69H49.53H61.88V67.275V54.86H49.53H37.18V67.275ZM99.06 67.275V79.69H111.41H123.76V67.275V54.86H111.41H99.06V67.275ZM77.87 59.475V62.92H79.4137C82.3628 62.92 83.6189 61.891 83.6189 59.475C83.6189 57.0589 82.3628 56.03 79.4137 56.03H77.87V59.475ZM51.1722 61.8007C54.0962 62.5794 55.8889 65.2847 55.4073 68.1915C54.351 74.5661 44.4509 74.4854 43.5464 68.095C42.9578 63.9369 46.9183 60.6681 51.1722 61.8007ZM113.052 61.8007C115.976 62.5794 117.769 65.2847 117.287 68.1915C116.231 74.5661 106.331 74.4854 105.426 68.095C104.838 63.9369 108.798 60.6681 113.052 61.8007ZM48.4526 64.0149C46.9774 64.4117 46.1019 65.7173 46.1717 67.4154C46.3554 71.8718 52.8362 71.735 52.8362 67.275C52.8362 64.8872 50.8108 63.3808 48.4526 64.0149ZM110.333 64.0149C108.857 64.4117 107.982 65.7173 108.052 67.4154C108.235 71.8718 114.716 71.735 114.716 67.275C114.716 64.8872 112.691 63.3808 110.333 64.0149Z" fill="#1F1F2A"/>
</svg>
