<svg id="svg" xmlns="http://www.w3.org/2000/svg" xmlns:xlink="http://www.w3.org/1999/xlink" width="400" height="400" viewBox="0, 0, 400,400"><g id="svgg"><path id="path0" d="M19.200 183.000 L 19.200 221.200 57.200 221.200 L 95.200 221.200 95.200 183.000 L 95.200 144.800 57.200 144.800 L 19.200 144.800 19.200 183.000 M209.600 183.000 L 209.600 221.200 247.600 221.200 L 285.600 221.200 285.600 183.000 L 285.600 144.800 247.600 144.800 L 209.600 144.800 209.600 183.000 M82.000 162.000 L 82.000 168.000 73.400 168.000 L 64.800 168.000 64.800 189.800 L 64.800 211.600 57.200 211.600 L 49.600 211.600 49.600 189.800 L 49.600 168.000 41.000 168.000 L 32.400 168.000 32.400 162.000 L 32.400 156.000 57.200 156.000 L 82.000 156.000 82.000 162.000 M257.319 157.322 C 278.030 163.708,284.841 188.057,270.038 202.798 C 262.741 210.064,258.044 211.283,236.500 211.505 L 220.400 211.670 220.400 183.807 L 220.400 155.945 237.100 156.091 L 253.800 156.238 257.319 157.322 M236.000 183.546 L 236.000 199.200 242.516 199.200 C 256.799 199.200,262.477 194.346,261.900 182.628 C 261.394 172.333,256.441 168.507,243.100 168.106 L 236.000 167.892 236.000 183.546 M114.400 207.000 L 114.400 245.200 152.400 245.200 L 190.400 245.200 190.400 207.000 L 190.400 168.800 152.400 168.800 L 114.400 168.800 114.400 207.000 M304.800 207.000 L 304.800 245.200 342.800 245.200 L 380.800 245.200 380.800 207.000 L 380.800 168.800 342.800 168.800 L 304.800 168.800 304.800 207.000 M158.000 179.227 C 190.106 184.429,192.120 228.124,160.600 235.633 C 142.921 239.845,125.559 230.019,122.135 213.863 C 117.758 193.217,135.944 175.654,158.000 179.227 M348.400 179.227 C 380.506 184.429,382.520 228.124,351.000 235.633 C 333.321 239.845,315.959 230.019,312.535 213.863 C 308.158 193.217,326.344 175.654,348.400 179.227 M147.714 192.158 C 134.439 196.484,133.265 216.570,145.939 222.530 C 156.588 227.538,167.414 220.103,167.391 207.800 C 167.369 196.171,158.074 188.782,147.714 192.158 M338.114 192.158 C 324.839 196.484,323.665 216.570,336.339 222.530 C 346.988 227.538,357.814 220.103,357.791 207.800 C 357.769 196.171,348.474 188.782,338.114 192.158 " stroke="none" fill="#f5f5f5" fill-rule="evenodd"></path></g></svg>